<?xml version="1.0" encoding="UTF-8"?>
<!DOCTYPE svg PUBLIC "-//W3C//DTD SVG 1.1//EN" "http://www.w3.org/Graphics/SVG/1.1/DTD/svg11.dtd">
<!-- Creator: CorelDRAW 2021 (64-Bit) -->
<svg xmlns="http://www.w3.org/2000/svg" xml:space="preserve" width="0.270945in" height="0.28937in" version="1.1" style="shape-rendering:geometricPrecision; text-rendering:geometricPrecision; image-rendering:optimizeQuality; fill-rule:evenodd; clip-rule:evenodd"
viewBox="0 0 30.1 32.15"
 xmlns:xlink="http://www.w3.org/1999/xlink"
 xmlns:xodm="http://www.corel.com/coreldraw/odm/2003">
 <defs>
  <style type="text/css">
   <![CDATA[
    .fil0 {fill:white;fill-rule:nonzero}
   ]]>
  </style>
 </defs>
 <g id="Layer_x0020_1">
  <metadata id="CorelCorpID_0Corel-Layer"/>
  <g id="_1858374397744">
   <path class="fil0" d="M7.6 20.2c0.68,0.05 1.33,0.14 1.95,0.25 -0.38,-0.51 -0.75,-1.05 -1.11,-1.62 -0.29,0.43 -0.57,0.88 -0.84,1.37z"/>
   <path class="fil0" d="M29.57 13.18c-0.5,-2.04 -1.32,-3.75 -2.45,-5.09 0.28,-1.4 0.51,-2.87 0.69,-4.41 0.02,-0.14 -0.03,-0.29 -0.14,-0.39 -0.09,-0.09 -0.21,-0.14 -0.33,-0.14 -0.02,0 -0.04,0 -0.06,0 -0.97,0.12 -1.91,0.19 -2.79,0.19 -3.68,0 -6.51,-1.05 -8.64,-3.2 -0.09,-0.09 -0.21,-0.14 -0.33,-0.14 -0.13,0 -0.24,0.05 -0.33,0.14 -0.98,0.99 -2.11,1.74 -3.4,2.27 -0.94,0.15 -1.93,0.42 -2.97,0.78 -0.72,0.1 -1.47,0.15 -2.27,0.15 -0.88,0 -1.82,-0.06 -2.79,-0.19 -0.02,-0 -0.04,-0 -0.06,-0 -0.12,0 -0.24,0.05 -0.33,0.14 -0.1,0.1 -0.15,0.24 -0.14,0.39 0.39,3.36 1.02,6.38 1.9,9.07 -1.66,2.85 -2.5,6.15 -2.33,9.48 -1.98,2.94 -2.89,5.68 -2.8,8.35l0.04 1.12c0.01,0.21 0.15,0.38 0.35,0.44 0.04,0.01 0.08,0.02 0.12,0.02 0.16,0 0.31,-0.08 0.4,-0.22l0.6 -0.95c2.72,-4.3 6.22,-6.72 10.44,-7.23 1.02,0.92 2.14,1.74 3.34,2.45 0.07,0.04 0.16,0.07 0.24,0.07 0.08,0 0.17,-0.02 0.24,-0.07 3.54,-2.09 6.31,-5.09 8.33,-9.04 1.47,0.81 3.01,1.81 4.63,3.02l0.48 0.36c0.08,0.06 0.18,0.09 0.28,0.09 0.06,0 0.13,-0.01 0.18,-0.04 0.15,-0.07 0.26,-0.21 0.28,-0.37l0.07 -0.6c0.04,-0.32 0.33,-3.24 -0.44,-6.44zm-0.02 6.39l0 0 -0.07 0.59 -0.48 -0.36c-1.79,-1.34 -3.49,-2.43 -5.1,-3.29 -2.11,4.33 -4.98,7.28 -8.37,9.28 -1.21,-0.72 -2.36,-1.56 -3.42,-2.53 -4.46,0.46 -8.15,2.96 -10.99,7.47l-0.6 0.95 -0.04 -1.12c-0.09,-2.61 0.83,-5.29 2.81,-8.2 -0.2,-3.37 0.66,-6.7 2.37,-9.56 -0.88,-2.64 -1.54,-5.68 -1.95,-9.18 1.87,0.24 3.61,0.25 5.21,0.03 1.06,-0.37 2.05,-0.64 2.99,-0.79 1.35,-0.54 2.56,-1.33 3.61,-2.39 2.88,2.91 6.93,3.77 11.82,3.15 -0.19,1.63 -0.44,3.16 -0.73,4.6 1.16,1.32 2,3.01 2.5,5.06 0.79,3.24 0.45,6.16 0.43,6.28z"/>
   <path class="fil0" d="M13.5 5.45c0,0 -0.8,-0.22 -1.36,-0.27 0,0 0.89,0.26 1.45,0.77 1.57,-0.62 3.21,-0.96 4.84,-0.99 -2.34,-1.85 -5.44,-2.05 -9.42,-0.61 0,0 0,0 0.01,0 0.55,-0 2.57,0.05 4.48,1.1z"/>
   <path class="fil0" d="M26.44 9.06c-1.23,-1.58 -2.89,-2.61 -4.97,-3.1 -0.92,-0.21 -1.85,-0.32 -2.78,-0.32 -3.17,0 -6.35,1.21 -9.04,3.49 -1.51,1.29 -2.76,2.83 -3.69,4.53 -1.46,2.66 -2.17,5.7 -1.97,8.77l0.01 0.12 -0.07 0.1c-1.64,2.38 -2.53,4.59 -2.73,6.71 2.74,-3.89 6.18,-6.14 10.26,-6.71 0.68,-0.1 1.38,-0.15 2.1,-0.15 -1,-0.54 -2.11,-0.94 -3.35,-1.22 -0.98,-0.22 -2.04,-0.37 -3.19,-0.44l-0.53 -0.03c-0.29,-0 -0.49,0 -0.49,0 0.4,-1.52 0.95,-2.7 1.51,-3.6 1.08,-1.74 2.19,-2.42 2.29,-2.48 -0.65,0.52 -0.98,1.35 -1,1.4 0.64,-0.78 1.95,-1.92 2.44,-2.33 1.07,-3.56 3.03,-5.73 3.2,-5.91 -0.15,0.21 -2.49,3.6 -3.19,8.25 1.16,-1.48 3.8,-4.72 5.59,-5.86 0.07,-0.05 0.14,-0.09 0.19,-0.12 0,0 -1.3,2.44 -1.78,3.44 2.35,-0.24 4.98,0.34 7.94,1.77 -0.12,-0.36 -0.31,-0.87 -0.61,-1.4 -0.69,-1.23 -1.76,-2.59 -1.76,-2.59 1.93,1.19 3.04,2.97 3.58,4.04 0.17,0.35 0.29,0.62 0.35,0.77 1.32,0.74 2.71,1.64 4.17,2.7 0.06,-1.02 0.08,-3.18 -0.47,-5.45 -0.43,-1.75 -1.1,-3.21 -2,-4.37zm0.16 5.09l0 0 -0.01 0.03c0,0 -0.05,-0.09 -0.16,-0.2 -0.11,-0.1 -0.9,-0.37 -1.21,-0.64 -0.02,-0.02 -0.05,-0.04 -0.06,-0.07 -0.24,-0.3 -0.36,-1.39 -0.36,-1.39l-0.26 -0.21c0.05,0.01 0.59,0.19 1.08,0.46 0.18,0.1 0.36,0.22 0.49,0.35 0.5,0.47 0.49,1.67 0.49,1.67z"/>
  </g>
 </g>
</svg>
