<?xml version="1.0" encoding="UTF-8"?>
<!DOCTYPE svg PUBLIC "-//W3C//DTD SVG 1.1//EN" "http://www.w3.org/Graphics/SVG/1.1/DTD/svg11.dtd">
<!-- Creator: CorelDRAW 2021 (64-Bit) -->
<svg xmlns="http://www.w3.org/2000/svg" xml:space="preserve" width="0.259043in" height="0.277205in" version="1.1" style="shape-rendering:geometricPrecision; text-rendering:geometricPrecision; image-rendering:optimizeQuality; fill-rule:evenodd; clip-rule:evenodd"
viewBox="0 0 27.67 29.6"
 xmlns:xlink="http://www.w3.org/1999/xlink"
 xmlns:xodm="http://www.corel.com/coreldraw/odm/2003">
 <defs>
  <style type="text/css">
   <![CDATA[
    .fil6 {fill:#ED3237;fill-rule:nonzero}
    .fil2 {fill:#ED3237;fill-rule:nonzero}
    .fil3 {fill:#03003F;fill-rule:nonzero}
    .fil5 {fill:#B3D4FF;fill-rule:nonzero}
    .fil0 {fill:#E94D65;fill-rule:nonzero}
    .fil1 {fill:#E94D65;fill-rule:nonzero}
    .fil4 {fill:white;fill-rule:nonzero}
   ]]>
  </style>
 </defs>
 <g id="Layer_x0020_1">
  <metadata id="CorelCorpID_0Corel-Layer"/>
  <g id="_1858341091616">
   <path class="fil0" d="M14.28 0c-2.73,2.76 -6.57,3.58 -11.21,2.99 1.32,11.4 5.48,17.65 11.21,21.04 5.74,-3.39 9.89,-9.64 11.21,-21.04 -4.64,0.59 -8.48,-0.23 -11.21,-2.99z"/>
   <g>
    <path class="fil1" d="M26.99 15.71l0 -0.02c-0.04,-0.98 -0.16,-2.17 -0.46,-3.39 -0.95,-3.9 -3.18,-6.29 -6.62,-7.09 -0.87,-0.2 -1.75,-0.3 -2.64,-0.3 -3.01,0 -6.03,1.15 -8.57,3.31 -0.49,0.42 -0.95,0.86 -1.38,1.33 -2.79,3.05 -4.26,7.14 -3.99,11.28l0.01 0.11 -0.06 0.09c-1.47,2.14 -2.31,4.13 -2.55,6.04 -0.01,0.11 -0.02,0.22 -0.03,0.33 3.04,-4.31 6.97,-6.49 11.73,-6.51 -1.7,-0.91 -3.74,-1.43 -6.2,-1.57l-0.5 -0.03c-0.27,-0 -0.46,0 -0.46,0 1.12,-4.24 3.45,-5.68 3.6,-5.77 -0.61,0.49 -0.93,1.28 -0.94,1.33 0.61,-0.74 1.85,-1.81 2.32,-2.21 0.16,-0.52 0.33,-1 0.52,-1.45 1.04,-2.55 2.43,-4.06 2.52,-4.16 -0.05,0.07 -1.13,1.61 -2.03,4.01 -0.41,1.11 -0.79,2.4 -1,3.82 0.8,-1.02 2.34,-2.92 3.78,-4.3 0.54,-0.52 1.07,-0.96 1.53,-1.26 0.07,-0.05 0.13,-0.09 0.18,-0.11 -0.02,0.04 -0.34,0.63 -0.71,1.33 -0.36,0.68 -0.76,1.47 -0.98,1.93 2.23,-0.23 4.72,0.33 7.53,1.68 -0.11,-0.35 -0.3,-0.83 -0.58,-1.33 -0.26,-0.46 -0.58,-0.95 -0.86,-1.36 -0.41,-0.59 -0.77,-1.05 -0.81,-1.09 0.7,0.43 1.28,0.94 1.76,1.46 1.2,1.3 1.79,2.67 1.96,3.09 1.26,0.7 2.57,1.55 3.95,2.56 0.02,-0.41 0.04,-1.02 0.01,-1.76zm-2.21 -2.74l0 0 -0.01 0.03c0,0 -0.05,-0.09 -0.16,-0.19 -0.11,-0.1 -0.98,-0.39 -1.2,-0.67 -0.23,-0.29 -0.34,-1.32 -0.34,-1.32l-0.24 -0.2c0.06,0.02 1.03,0.33 1.49,0.77 0.48,0.45 0.46,1.59 0.46,1.59z"/>
    <path class="fil1" d="M17.03 4.26c-1.55,0.03 -3.1,0.35 -4.59,0.94 -0.53,-0.49 -1.38,-0.73 -1.38,-0.73 0.53,0.05 1.29,0.26 1.29,0.26 -1.81,-0.99 -3.73,-1.05 -4.25,-1.05 -0,0 -0,-0 -0.01,-0 1.61,-0.58 3.06,-0.88 4.37,-0.9 1.55,-0.02 2.9,0.35 4.07,1.11 0.17,0.11 0.34,0.23 0.5,0.36z"/>
    <path class="fil2" d="M26.99 15.69l0 0.02 -0.81 -0.61c-0.79,-7.87 -7.41,-8.96 -7.41,-8.96 3.46,0.16 5.67,2.43 5.74,2.5 -0.08,-0.1 -2.58,-3.43 -7.87,-3.18 -3.66,0.17 -7.36,2.58 -9.34,4.09 0.43,-0.47 0.89,-0.92 1.38,-1.33 2.55,-2.16 5.57,-3.31 8.57,-3.31 0.89,0 1.77,0.1 2.64,0.3 3.44,0.8 5.66,3.18 6.62,7.09 0.3,1.23 0.42,2.42 0.46,3.39z"/>
    <g>
     <path class="fil3" d="M20.06 4.57c-0.67,-0.15 -1.34,-0.25 -2.01,-0.29 -2.63,-2.54 -6.23,-2.83 -11,-0.9l-0.8 0.32 0.81 0.29c1.36,0.48 3.15,1.19 3.66,2.03 -0.85,0.47 -1.66,1.04 -2.44,1.7 -3.81,3.23 -5.9,8.1 -5.61,13.04 -1.88,2.76 -2.75,5.3 -2.67,7.78l0.03 1.06 0.57 -0.9c3.23,-5.11 7.6,-7.51 13.01,-7.12l1.19 0.08 -0.98 -0.68c-1.88,-1.31 -4.2,-2.06 -7.07,-2.28 0.87,-1.57 1.85,-2.82 2.96,-3.74 -0.03,0.24 -0.06,0.48 -0.08,0.73l-0.08 0.86 0.52 -0.69c0.01,-0.02 0.86,-1.03 1.9,-2.25 0.36,-0.14 0.72,-0.26 1.09,-0.34 3.65,-0.84 8.36,0.86 13.99,5.06l0.45 0.34 0.07 -0.56c0.01,-0.12 0.33,-2.89 -0.41,-5.96 -1,-4.12 -3.46,-6.74 -7.11,-7.59zm-11.96 -0.89l0 0c-0,-0 -0,-0 -0.01,-0 3.77,-1.36 6.71,-1.18 8.94,0.58 -1.55,0.03 -3.1,0.35 -4.59,0.94 -0.53,-0.49 -1.38,-0.73 -1.38,-0.73 0.53,0.05 1.29,0.26 1.29,0.26 -1.81,-0.99 -3.73,-1.05 -4.25,-1.04zm18.88 13.78l0 0c-1.38,-1 -2.69,-1.86 -3.95,-2.56 -0.23,-0.59 -1.3,-3.06 -3.72,-4.56 0,0 1.02,1.29 1.67,2.46 0.28,0.5 0.46,0.98 0.58,1.33 -2.8,-1.35 -5.3,-1.91 -7.53,-1.68 0.46,-0.95 1.69,-3.26 1.69,-3.26 -0.05,0.02 -0.12,0.06 -0.18,0.11 -1.7,1.09 -4.21,4.16 -5.31,5.56 0.69,-4.55 3.04,-7.83 3.04,-7.83 -0.1,0.11 -2.01,2.19 -3.04,5.62 -0.47,0.4 -1.71,1.47 -2.32,2.21 0,0 0.31,-0.83 0.95,-1.33 0,0 -2.45,1.39 -3.61,5.77 0,0 0.19,-0.01 0.46,-0l0.5 0.03c2.46,0.14 4.5,0.66 6.2,1.57 -4.75,0.02 -8.69,2.21 -11.73,6.51 0.18,-2.02 1.03,-4.11 2.59,-6.37l0.06 -0.09 -0.01 -0.11c-0.31,-4.78 1.7,-9.49 5.37,-12.62 2.55,-2.16 5.57,-3.31 8.57,-3.31 0.89,0 1.77,0.1 2.64,0.3 3.44,0.8 5.66,3.18 6.62,7.09 0.53,2.16 0.5,4.21 0.45,5.17z"/>
     <path class="fil3" d="M22.83 10.62l0.24 0.2c0,0 0.12,1.03 0.34,1.32 0.22,0.29 1.1,0.57 1.2,0.67 0.11,0.1 0.16,0.19 0.16,0.19l0.01 -0.03c0,0 0.01,-1.14 -0.46,-1.59 -0.48,-0.45 -1.49,-0.77 -1.49,-0.77z"/>
    </g>
    <path class="fil4" d="M12.42 20.89c-0.7,0 -1.38,0.05 -2.04,0.15 -3.85,0.56 -7.1,2.69 -9.69,6.36 0.01,-0.11 0.02,-0.22 0.03,-0.33 0.94,-1.95 3.29,-4.1 3.38,-4.18 -0.69,0.14 -1.96,1.54 -2.04,1.63 0.49,-1.22 2.41,-2.98 2.41,-2.98 -0.04,-2 -0.29,-8.21 6.27,-10.35 -0.15,0.36 -0.29,0.74 -0.42,1.15 -0.03,0.1 -0.07,0.2 -0.1,0.31 -0.47,0.4 -1.71,1.47 -2.32,2.21 0.02,-0.05 0.33,-0.84 0.94,-1.33 -0.15,0.08 -2.48,1.52 -3.6,5.77 0,0 0.19,-0.01 0.46,-0l0.5 0.03c2.46,0.14 4.5,0.66 6.2,1.57z"/>
    <path class="fil4" d="M21.55 14.14c-2.8,-1.35 -5.3,-1.91 -7.53,-1.68 0.18,-0.38 0.49,-0.98 0.79,-1.56 0.06,-0.12 0.13,-0.24 0.19,-0.36 1.86,0 3.58,0.37 5.1,0.91 0.15,0.22 0.31,0.46 0.47,0.7l0 0c0.14,0.22 0.27,0.44 0.4,0.66 0.28,0.5 0.46,0.98 0.58,1.33z"/>
    <path class="fil4" d="M26.98 17.47c-1.38,-1 -2.69,-1.86 -3.95,-2.56 -0.04,-0.11 -0.11,-0.27 -0.21,-0.49 -0.29,-0.62 -0.85,-1.63 -1.75,-2.6 3.28,1.38 5.48,3.44 5.92,3.87 0.01,0.16 0.01,0.32 0.01,0.47 0.01,0.53 -0.01,0.98 -0.02,1.31z"/>
    <path class="fil5" d="M6.22 19.33c2.46,0.14 4.5,0.66 6.2,1.57 -0.7,0 -1.38,0.05 -2.04,0.15 -2.12,-1.26 -5.41,-0.72 -5.41,-0.72 0,0 -0.29,-1.18 0.82,-3.92 1.1,-2.74 3.1,-3.86 3.1,-3.86l-0.65 0.75c0.79,-0.55 1.66,-0.84 2.09,-0.95 -0.03,0.1 -0.07,0.2 -0.1,0.31 -0.47,0.4 -1.71,1.47 -2.32,2.21 0.02,-0.05 0.33,-0.84 0.94,-1.33 -0.15,0.08 -2.48,1.52 -3.6,5.77 0,0 0.19,-0.01 0.46,-0l0.5 0.03z"/>
    <path class="fil5" d="M20.98 12.81c0.28,0.5 0.46,0.98 0.58,1.33 -2.8,-1.35 -5.3,-1.91 -7.53,-1.68 0.18,-0.38 0.49,-0.98 0.79,-1.56l-0.11 1.1c2.08,0.13 4.12,0.58 6.11,1.36 0.04,-0.24 -0.13,-0.87 -0.24,-1.21 0.14,0.22 0.27,0.44 0.4,0.66z"/>
    <path class="fil5" d="M26.98 17.47c-1.38,-1 -2.69,-1.86 -3.95,-2.56 -0.04,-0.11 -0.11,-0.27 -0.21,-0.49 0.56,0.26 1.84,1.03 1.93,1.08l-0.77 -0.66c0.94,0.37 2.78,1.99 2.78,1.99l0.25 -0.67c0.01,0.53 -0.01,0.98 -0.02,1.31z"/>
    <path class="fil2" d="M17.03 4.26c-1.55,0.03 -3.1,0.35 -4.59,0.94 -0.53,-0.49 -1.38,-0.73 -1.38,-0.73 0.53,0.05 1.29,0.26 1.29,0.26 -1.81,-0.99 -3.73,-1.05 -4.25,-1.05 -0,0 -0,-0 -0.01,-0 1.61,-0.58 3.06,-0.88 4.37,-0.9 -0.65,0.11 -1.49,0.29 -1.96,0.54 0,0 1.55,0.17 2.46,0.67 -0.04,-0.01 -0.4,-0.1 -0.56,-0.1 0,0 0.9,0.38 1.13,0.61 0,0 1.83,-0.67 2.98,-0.6 0.17,0.11 0.34,0.23 0.5,0.36z"/>
    <path class="fil6" d="M13.3 6.97c0,0 -1.08,3.57 -0.92,5.57l-2.45 3.21c0,0 0.55,-4.8 3.37,-8.78z"/>
   </g>
  </g>
 </g>
</svg>
